<?xml version="1.0" encoding="utf-8"?>
<!-- Generator: Adobe Illustrator 28.0.0, SVG Export Plug-In . SVG Version: 6.00 Build 0)  -->
<svg version="1.1" id="Layer_1" xmlns="http://www.w3.org/2000/svg" xmlns:xlink="http://www.w3.org/1999/xlink" x="0px" y="0px"
	 viewBox="0 0 362.78 371.91" style="enable-background:new 0 0 362.78 371.91;" xml:space="preserve">
<style type="text/css">
	.st0{fill:none;stroke:#C7AD42;stroke-miterlimit:10;}
	.st1{fill:none;stroke:url(#SVGID_1_);stroke-width:3;stroke-miterlimit:10;}
	.st2{fill:none;stroke:url(#SVGID_00000174563567188206674020000006480436686868058285_);stroke-miterlimit:10;}
	.st3{fill:none;stroke:url(#SVGID_00000157301707017062003240000005265007741595611035_);stroke-width:3;stroke-miterlimit:10;}
	.st4{fill:none;stroke:url(#SVGID_00000099631061151225760470000007060486523923797635_);stroke-width:3;stroke-miterlimit:10;}
	.st5{fill:none;stroke:url(#SVGID_00000001656754224214959070000018328393732729288091_);stroke-width:3;stroke-miterlimit:10;}
	.st6{fill:none;stroke:url(#SVGID_00000101063405247136187900000003166137231445583506_);stroke-width:3;stroke-miterlimit:10;}
	
		.st7{fill:none;stroke:url(#SVGID_00000163774152395194485700000007921993219943437234_);stroke-width:3.0001;stroke-miterlimit:10.0004;}
	.st8{fill:none;stroke:url(#SVGID_00000168101007144660732170000015695781275868801433_);stroke-width:3;stroke-miterlimit:10;}
	.st9{fill:none;stroke:url(#SVGID_00000112607750855637090020000013793018405986219932_);stroke-width:3;stroke-miterlimit:10;}
	.st10{fill:#CBB26A;stroke:#CBB26A;stroke-miterlimit:10;}
	.st11{fill:none;stroke:url(#SVGID_00000083783198054257543160000014891454831150763705_);stroke-width:8;stroke-miterlimit:10;}
</style>
<path class="st0" d="M100.68,144.06"/>
<g>
	
		<linearGradient id="SVGID_1_" gradientUnits="userSpaceOnUse" x1="148.6136" y1="292.4162" x2="220.5529" y2="292.4162" gradientTransform="matrix(0.9809 0.1946 0.1946 -0.9809 -53.1453 392.5583)">
		<stop  offset="0" style="stop-color:#FFF33B"/>
		<stop  offset="0.0334" style="stop-color:#FFEA43"/>
		<stop  offset="0.2096" style="stop-color:#E7D059"/>
		<stop  offset="0.3897" style="stop-color:#D7BF64"/>
		<stop  offset="0.5746" style="stop-color:#CEB569"/>
		<stop  offset="0.7716" style="stop-color:#CBB26A"/>
		<stop  offset="1" style="stop-color:#E8E1A7"/>
	</linearGradient>
	<path class="st1" d="M195.65,109.18c2.23-7.92,4.46-15.85,6.68-23.77c3.43,0.93,6.85,1.85,10.28,2.78
		c-2.65,8-5.31,16.01-7.96,24.01c1.65,0.42,4,1.24,6.3,2.97c5.92,4.46,7.13,11.64,7.74,15.56c1.38,8.83-1.46,10.12-3.41,27.13
		c-1.22,10.63-0.49,13.39-2.95,19.84c-1.2,3.14-3.18,8.19-7.69,12.74c-8.23,8.3-19.29,9.28-23.45,9.4
		c-0.32,0.01-0.66,0.02-1.06,0.01c-2.28,0-13.27-0.23-23.02-8.01c-2.16-1.72-6.15-4.98-8.96-10.64c-6.62-13.3-0.42-27.12,0.71-29.63
		c2.26-5.04,3.07-3.93,11.9-15.35c12.35-15.97,14.2-22.56,22.6-25.78C188.25,108.57,192.84,108.8,195.65,109.18z"/>
	
		<linearGradient id="SVGID_00000112622955925650449400000011529303463080045494_" gradientUnits="userSpaceOnUse" x1="198.3049" y1="325.1672" x2="198.3049" y2="325.1672" gradientTransform="matrix(0.9809 0.1946 0.1946 -0.9809 -53.1453 392.5583)">
		<stop  offset="0" style="stop-color:#FFF33B"/>
		<stop  offset="0.0334" style="stop-color:#FFEA43"/>
		<stop  offset="0.2096" style="stop-color:#E7D059"/>
		<stop  offset="0.3897" style="stop-color:#D7BF64"/>
		<stop  offset="0.5746" style="stop-color:#CEB569"/>
		<stop  offset="0.7716" style="stop-color:#CBB26A"/>
		<stop  offset="1" style="stop-color:#E8E1A7"/>
	</linearGradient>
	<path style="fill:none;stroke:url(#SVGID_00000112622955925650449400000011529303463080045494_);stroke-miterlimit:10;" d="
		M204.65,112.19"/>
	
		<linearGradient id="SVGID_00000137842140298848219620000009066089277368157350_" gradientUnits="userSpaceOnUse" x1="197.6952" y1="335.3789" x2="245.2052" y2="335.3789" gradientTransform="matrix(0.9809 0.1946 0.1946 -0.9809 -53.1453 392.5583)">
		<stop  offset="0" style="stop-color:#FFF33B"/>
		<stop  offset="0.0334" style="stop-color:#FFEA43"/>
		<stop  offset="0.2096" style="stop-color:#E7D059"/>
		<stop  offset="0.3897" style="stop-color:#D7BF64"/>
		<stop  offset="0.5746" style="stop-color:#CEB569"/>
		<stop  offset="0.7716" style="stop-color:#CBB26A"/>
		<stop  offset="1" style="stop-color:#E8E1A7"/>
	</linearGradient>
	
		<path style="fill:none;stroke:url(#SVGID_00000137842140298848219620000009066089277368157350_);stroke-width:3;stroke-miterlimit:10;" d="
		M252.01,105.35c-3.2-3.2-8.47-7.5-15.97-10.06c-2.58-0.88-7.28-2.43-13.4-1.92c-3.47,0.29-7.32,0.61-10.79,3.52
		c-1.2,1.01-4.84,4.41-4.98,9.47c-0.02,0.67-0.04,1.98,0.46,3.41c1.68,4.79,7.76,6.62,11.04,7.6c3.7,1.11,13,3.9,22.62-1.17
		C247.29,112.89,250.6,107.87,252.01,105.35z"/>
	
		<linearGradient id="SVGID_00000154416063038162377550000017914284543676226436_" gradientUnits="userSpaceOnUse" x1="196.714" y1="334.1032" x2="227.7554" y2="334.1032" gradientTransform="matrix(0.9809 0.1946 0.1946 -0.9809 -53.1453 392.5583)">
		<stop  offset="0" style="stop-color:#FFF33B"/>
		<stop  offset="0.0334" style="stop-color:#FFEA43"/>
		<stop  offset="0.2096" style="stop-color:#E7D059"/>
		<stop  offset="0.3897" style="stop-color:#D7BF64"/>
		<stop  offset="0.5746" style="stop-color:#CEB569"/>
		<stop  offset="0.7716" style="stop-color:#CBB26A"/>
		<stop  offset="1" style="stop-color:#E8E1A7"/>
	</linearGradient>
	
		<path style="fill:none;stroke:url(#SVGID_00000154416063038162377550000017914284543676226436_);stroke-width:3;stroke-miterlimit:10;" d="
		M233.71,107.97c0-0.72,0-1.43,0-2.15c-2.79-0.8-6.46-1.62-10.79-1.98c-6.28-0.51-11.38,0.18-14.73,0.88
		c-0.43,0.55-0.86,1.1-1.3,1.64C215.82,106.9,224.77,107.44,233.71,107.97z"/>
	
		<linearGradient id="SVGID_00000021829891834193296640000017501013315596436115_" gradientUnits="userSpaceOnUse" x1="185.1942" y1="279.2946" x2="212.0001" y2="279.2946" gradientTransform="matrix(0.9809 0.1946 0.1946 -0.9809 -53.1453 392.5583)">
		<stop  offset="0" style="stop-color:#FFF33B"/>
		<stop  offset="0.0334" style="stop-color:#FFEA43"/>
		<stop  offset="0.2096" style="stop-color:#E7D059"/>
		<stop  offset="0.3897" style="stop-color:#D7BF64"/>
		<stop  offset="0.5746" style="stop-color:#CEB569"/>
		<stop  offset="0.7716" style="stop-color:#CBB26A"/>
		<stop  offset="1" style="stop-color:#E8E1A7"/>
	</linearGradient>
	
		<path style="fill:none;stroke:url(#SVGID_00000021829891834193296640000017501013315596436115_);stroke-width:3;stroke-miterlimit:10;" d="
		M204.65,112.19c2.11,3.37,4.94,8.86,5.99,16.05c0.6,4.14,0.18,8.16-0.68,16.05c-1.35,12.33-3.3,20.34-4.19,23.78
		c-2.44,9.42-4.26,12.71-5.72,14.92c-0.82,1.23-3.23,4.72-7.4,8.14c-6.72,5.51-13.86,7.47-18.1,8.25"/>
	
		<linearGradient id="SVGID_00000054254312026663205710000015745248472873956504_" gradientUnits="userSpaceOnUse" x1="155.2005" y1="279.4535" x2="201.644" y2="279.4535" gradientTransform="matrix(0.9809 0.1946 0.1946 -0.9809 -53.1453 392.5583)">
		<stop  offset="0" style="stop-color:#FFF33B"/>
		<stop  offset="0.0334" style="stop-color:#FFEA43"/>
		<stop  offset="0.2096" style="stop-color:#E7D059"/>
		<stop  offset="0.3897" style="stop-color:#D7BF64"/>
		<stop  offset="0.5746" style="stop-color:#CEB569"/>
		<stop  offset="0.7716" style="stop-color:#CBB26A"/>
		<stop  offset="1" style="stop-color:#E8E1A7"/>
	</linearGradient>
	
		<path style="fill:none;stroke:url(#SVGID_00000054254312026663205710000015745248472873956504_);stroke-width:3;stroke-miterlimit:10;" d="
		M192.73,117.7c0.64,0.16,3.81,1.03,6.11,3.92c2.59,3.25,2.62,7.23,0.08,23.15c-2.08,13.04-2.25,11.27-3.33,19.27
		c-1.11,8.21-0.87,9.56-2.25,12.59c-4.14,9.07-13.3,12.35-13.8,12.52c-1.34,0.46-11.98,3.89-20.17-2.52
		c-4.58-3.59-6.05-8.44-6.74-10.69c-3.46-11.36,2.49-21.5,3.65-23.39c2.18-3.54,2.32-2.05,9.26-10.71
		c3.18-3.97,5.53-6.89,8.36-11.14c4.34-6.49,4.2-7.65,6.85-9.71C181.78,120.19,186.88,116.22,192.73,117.7z"/>
	
		<linearGradient id="SVGID_00000130625945850362407760000002930900226008247685_" gradientUnits="userSpaceOnUse" x1="164.1785" y1="266.8978" x2="192.283" y2="266.8978" gradientTransform="matrix(0.5839 -0.8119 -0.8119 -0.5839 286.2735 465.9597)">
		<stop  offset="0" style="stop-color:#FFF33B"/>
		<stop  offset="0.0334" style="stop-color:#FFEA43"/>
		<stop  offset="0.2096" style="stop-color:#E7D059"/>
		<stop  offset="0.3897" style="stop-color:#D7BF64"/>
		<stop  offset="0.5746" style="stop-color:#CEB569"/>
		<stop  offset="0.7716" style="stop-color:#CBB26A"/>
		<stop  offset="1" style="stop-color:#E8E1A7"/>
	</linearGradient>
	
		<ellipse style="fill:none;stroke:url(#SVGID_00000130625945850362407760000002930900226008247685_);stroke-width:3.0001;stroke-miterlimit:10.0004;" cx="173.64" cy="165.42" rx="12.55" ry="12.55"/>
	
		<linearGradient id="SVGID_00000147904386931365750230000008269831216588415406_" gradientUnits="userSpaceOnUse" x1="171.6748" y1="272.5398" x2="182.3416" y2="272.5398" gradientTransform="matrix(0.9809 0.1946 0.1946 -0.9809 -53.1453 392.5583)">
		<stop  offset="0" style="stop-color:#FFF33B"/>
		<stop  offset="0.0334" style="stop-color:#FFEA43"/>
		<stop  offset="0.2096" style="stop-color:#E7D059"/>
		<stop  offset="0.3897" style="stop-color:#D7BF64"/>
		<stop  offset="0.5746" style="stop-color:#CEB569"/>
		<stop  offset="0.7716" style="stop-color:#CBB26A"/>
		<stop  offset="1" style="stop-color:#E8E1A7"/>
	</linearGradient>
	
		<path style="fill:none;stroke:url(#SVGID_00000147904386931365750230000008269831216588415406_);stroke-width:3;stroke-miterlimit:10;" d="
		M174.02,160.18c1.28-0.12,1.78,0.35,2.6,0.08c0.49-0.17,0.91-0.55,0.86-0.9c-0.09-0.71-2.03-1.21-3.49-1.27
		c-1.71-0.07-3.89,0.42-4.31,1.41c-0.17,0.41-0.09,1,0.43,1.24c0.39,0.18,0.89,0.11,1.67-0.01
		C173.14,160.52,173.13,160.27,174.02,160.18z"/>
	
		<linearGradient id="SVGID_00000164479340839295214900000011199079373082791589_" gradientUnits="userSpaceOnUse" x1="170.0881" y1="264.8732" x2="177.1488" y2="264.8732" gradientTransform="matrix(0.9809 0.1946 0.1946 -0.9809 -53.1453 392.5583)">
		<stop  offset="0" style="stop-color:#FFF33B"/>
		<stop  offset="0.0334" style="stop-color:#FFEA43"/>
		<stop  offset="0.2096" style="stop-color:#E7D059"/>
		<stop  offset="0.3897" style="stop-color:#D7BF64"/>
		<stop  offset="0.5746" style="stop-color:#CEB569"/>
		<stop  offset="0.7716" style="stop-color:#CBB26A"/>
		<stop  offset="1" style="stop-color:#E8E1A7"/>
	</linearGradient>
	
		<circle style="fill:none;stroke:url(#SVGID_00000164479340839295214900000011199079373082791589_);stroke-width:3;stroke-miterlimit:10;" cx="168.71" cy="166.53" r="2.03"/>
</g>
<g>
	<g>
		<path class="st10" d="M104.96,245.94H94.88v-1.44c0.9,0,1.62-0.14,2.16-0.43c0.54-0.29,1.07-0.87,1.58-1.75
			c0.51-0.88,1.15-2.23,1.92-4.06l10.18-24.1h1.97l11.38,26.06c0.7,1.57,1.38,2.67,2.04,3.31c0.66,0.64,1.62,0.96,2.9,0.96v1.44
			H116.1v-1.44c0.48,0,0.98-0.03,1.49-0.1c0.51-0.06,0.94-0.22,1.3-0.48c0.35-0.26,0.53-0.66,0.53-1.2c0-0.35-0.06-0.76-0.17-1.22
			c-0.11-0.46-0.33-1.05-0.65-1.75l-2.06-4.8l-0.34-0.96l-5.47-13.92h-0.14l-5.62,13.92l-0.34,0.96l-2.35,5.57
			c-0.13,0.38-0.25,0.76-0.36,1.13s-0.17,0.78-0.17,1.22c0,0.67,0.26,1.11,0.77,1.32c0.51,0.21,1.33,0.31,2.45,0.31L104.96,245.94
			L104.96,245.94z M117.25,235.43h-13.34l0.72-1.92h11.9L117.25,235.43z"/>
		<path class="st10" d="M141.92,246.23h-2.3l-7.15-18.1c-0.42-0.99-0.78-1.74-1.1-2.23c-0.32-0.5-0.69-0.83-1.1-1.01
			c-0.42-0.18-0.98-0.26-1.68-0.26v-1.39h10.13v1.39c-0.93,0-1.58,0.1-1.94,0.31c-0.37,0.21-0.55,0.5-0.55,0.89
			c0,0.32,0.05,0.62,0.14,0.91c0.1,0.29,0.21,0.61,0.34,0.96l4.08,10.7l0.91,2.88h0.29l1.01-2.93l4.13-10.85
			c0.03-0.13,0.1-0.33,0.19-0.6c0.1-0.27,0.14-0.6,0.14-0.98c0-0.54-0.24-0.9-0.72-1.06s-1.15-0.24-2.02-0.24v-1.39h8.4v1.39
			c-0.93,0-1.64,0.22-2.14,0.65s-0.98,1.27-1.46,2.52L141.92,246.23z"/>
		<path class="st10" d="M164.67,246.42c-3.36,0-5.99-1.05-7.9-3.14c-1.9-2.1-2.86-5.08-2.86-8.95c0-2.33,0.45-4.38,1.34-6.12
			c0.9-1.74,2.15-3.1,3.77-4.08c1.62-0.98,3.5-1.46,5.64-1.46c3.29,0,5.89,1.02,7.8,3.07c1.9,2.05,2.86,4.85,2.86,8.4
			c0,2.69-0.46,4.94-1.37,6.77c-0.91,1.82-2.17,3.2-3.77,4.13S166.75,246.42,164.67,246.42z M164.86,244.5
			c1.31,0,2.42-0.3,3.31-0.91c0.89-0.61,1.58-1.65,2.04-3.12c0.46-1.47,0.7-3.5,0.7-6.1c0-2.94-0.54-5.33-1.61-7.15
			s-2.68-2.74-4.82-2.74c-1.82,0-3.3,0.77-4.42,2.3c-1.12,1.54-1.68,3.84-1.68,6.91c0,3.81,0.57,6.57,1.7,8.28
			C161.22,243.7,162.81,244.54,164.86,244.5z"/>
		<path class="st10" d="M196.54,238.84l0.91,0.67c-0.61,1.28-1.3,2.45-2.09,3.5c-0.79,1.06-1.75,1.89-2.9,2.5s-2.59,0.91-4.32,0.91
			c-1.98,0-3.7-0.48-5.14-1.44s-2.54-2.3-3.31-4.01c-0.77-1.71-1.15-3.67-1.15-5.88c0-2.53,0.42-4.72,1.27-6.58
			c0.85-1.86,2.08-3.3,3.7-4.32c1.62-1.02,3.58-1.54,5.88-1.54c2.27,0,4.06,0.5,5.35,1.49c1.3,0.99,1.94,2.19,1.94,3.6
			c0,0.7-0.17,1.24-0.5,1.61c-0.34,0.37-0.84,0.55-1.51,0.55c-0.7,0-1.24-0.18-1.61-0.55s-0.66-0.82-0.89-1.37
			c-0.22-0.54-0.46-1.09-0.7-1.63c-0.24-0.54-0.58-1-1.01-1.37c-0.43-0.37-1.06-0.55-1.9-0.55c-1.95,0-3.48,0.71-4.58,2.14
			c-1.1,1.42-1.66,3.51-1.66,6.26c0,2.91,0.6,5.3,1.8,7.18s3.03,2.81,5.5,2.81c1.57,0,2.84-0.32,3.82-0.96
			C194.42,241.22,195.45,240.22,196.54,238.84z"/>
		<path class="st10" d="M205.9,246.28c-1.86,0-3.27-0.51-4.25-1.54c-0.98-1.02-1.46-2.3-1.46-3.84c0-1.28,0.29-2.36,0.89-3.24
			c0.59-0.88,1.38-1.62,2.35-2.23c0.98-0.61,2.03-1.12,3.17-1.54c1.13-0.42,2.25-0.77,3.34-1.06s2.05-0.56,2.88-0.82v-2.11
			c0-2.08-0.36-3.56-1.08-4.44s-1.8-1.32-3.24-1.32c-1.38,0-2.26,0.29-2.64,0.86c-0.38,0.58-0.58,1.58-0.58,3.02
			c0,0.74-0.18,1.29-0.55,1.66s-0.89,0.55-1.56,0.55c-0.48,0-0.94-0.18-1.37-0.55s-0.65-0.95-0.65-1.75c0-0.9,0.34-1.74,1.03-2.54
			c0.69-0.8,1.66-1.46,2.93-1.97c1.26-0.51,2.76-0.77,4.49-0.77c2.62,0,4.48,0.61,5.57,1.82c1.09,1.22,1.63,3.07,1.63,5.57v10.9
			c0,0.99,0.11,1.63,0.34,1.92s0.59,0.43,1.1,0.43c0.45,0,0.86-0.11,1.22-0.34s0.71-0.51,1.03-0.86l0.72,0.77
			c-0.8,1.15-1.56,1.99-2.28,2.52s-1.69,0.79-2.9,0.79c-1.12,0-1.85-0.32-2.18-0.96c-0.34-0.64-0.58-1.55-0.74-2.74l-0.29-0.58v-8.3
			c-1.44,0.35-2.8,0.77-4.08,1.25s-2.32,1.1-3.12,1.87s-1.2,1.78-1.2,3.02c0,1.18,0.32,2.13,0.96,2.83c0.64,0.71,1.47,1.06,2.5,1.06
			c0.83,0,1.7-0.21,2.62-0.62s1.8-1.01,2.66-1.78l0.38,1.73h-0.58c-0.74,0.64-1.45,1.22-2.14,1.73s-1.42,0.9-2.21,1.18
			S206.93,246.28,205.9,246.28z"/>
		<path class="st10" d="M231.2,246.33c-1.79,0-3.3-0.48-4.54-1.44c-1.23-0.96-2.15-2.26-2.76-3.91c-0.61-1.65-0.91-3.5-0.91-5.54
			c0-2.66,0.5-4.94,1.49-6.84s2.33-3.37,4.01-4.39c1.68-1.02,3.53-1.54,5.54-1.54c0.77,0,1.53,0.1,2.28,0.29s1.48,0.48,2.18,0.86
			h0.19v-6.29c0-1.06-0.12-1.74-0.36-2.06s-0.82-0.48-1.75-0.48c-0.22,0-0.64,0.03-1.25,0.1v-1.34l6.05-1.68h1.3v28.75
			c0,1.25,0.18,2.06,0.53,2.42c0.35,0.37,0.98,0.55,1.87,0.55h1.01v1.3l-6.14,1.1h-1.1v-3.31h-0.19c-0.9,0.8-1.96,1.58-3.19,2.33
			C234.21,245.95,232.8,246.33,231.2,246.33z M233.45,242.87c1.12,0,2.06-0.15,2.83-0.46c0.77-0.3,1.57-0.74,2.4-1.32v-12.67
			c-0.19-0.99-0.66-1.88-1.39-2.66s-1.86-1.18-3.36-1.18c-2.02,0-3.65,0.74-4.9,2.21s-1.87,3.73-1.87,6.77
			c0,3.3,0.54,5.67,1.61,7.13C229.85,242.14,231.41,242.87,233.45,242.87z"/>
		<path class="st10" d="M259.66,246.42c-3.36,0-5.99-1.05-7.9-3.14c-1.9-2.1-2.86-5.08-2.86-8.95c0-2.33,0.45-4.38,1.34-6.12
			s2.15-3.1,3.77-4.08c1.62-0.98,3.5-1.46,5.64-1.46c3.3,0,5.9,1.02,7.8,3.07c1.9,2.05,2.86,4.85,2.86,8.4
			c0,2.69-0.46,4.94-1.37,6.77c-0.91,1.82-2.17,3.2-3.77,4.13C263.58,245.96,261.74,246.42,259.66,246.42z M259.85,244.5
			c1.31,0,2.42-0.3,3.31-0.91c0.9-0.61,1.58-1.65,2.04-3.12s0.7-3.5,0.7-6.1c0-2.94-0.54-5.33-1.61-7.15s-2.68-2.74-4.82-2.74
			c-1.82,0-3.3,0.77-4.42,2.3c-1.12,1.54-1.68,3.84-1.68,6.91c0,3.81,0.57,6.57,1.7,8.28C256.21,243.7,257.8,244.54,259.85,244.5z"
			/>
		<path class="st10" d="M106.59,304.02c-1.92,0-3.66-0.46-5.21-1.37s-2.78-2.26-3.67-4.03c-0.9-1.78-1.34-3.94-1.34-6.5
			c0-2.69,0.46-4.9,1.37-6.65c0.91-1.74,2.14-3.05,3.67-3.91c1.54-0.86,3.23-1.3,5.09-1.3c2.62,0,4.74,0.91,6.34,2.74
			c1.6,1.82,2.46,4.42,2.59,7.78h-15.6L99.78,289h11.14c-0.03-1.18-0.24-2.3-0.62-3.34s-0.94-1.88-1.68-2.52
			c-0.74-0.64-1.68-0.96-2.83-0.96c-1.86,0-3.25,0.73-4.18,2.18s-1.39,3.51-1.39,6.17c0,2.21,0.35,4.05,1.06,5.52
			c0.7,1.47,1.63,2.57,2.78,3.29s2.38,1.08,3.7,1.08c1.31,0,2.38-0.18,3.19-0.53c0.82-0.35,1.51-0.81,2.09-1.37s1.12-1.18,1.63-1.85
			l0.91,0.67c-0.42,0.9-0.9,1.75-1.44,2.57s-1.16,1.53-1.85,2.14c-0.69,0.61-1.5,1.09-2.42,1.44
			C108.93,303.85,107.84,304.02,106.59,304.02z"/>
		<path class="st10" d="M127.66,304.02c-1.98,0-3.53-0.65-4.63-1.94s-1.66-3.58-1.66-6.84v-9.74c0-0.86-0.09-1.5-0.26-1.9
			c-0.18-0.4-0.5-0.66-0.98-0.77s-1.15-0.17-2.02-0.17v-1.34l6.19-0.72h1.06v14.02c0,1.63,0.18,2.9,0.55,3.82
			c0.37,0.91,0.88,1.56,1.54,1.94s1.4,0.58,2.23,0.58c1.22,0,2.26-0.27,3.14-0.82c0.88-0.54,1.8-1.23,2.76-2.06v-12.62
			c0-0.86-0.11-1.49-0.34-1.87c-0.22-0.38-0.62-0.63-1.18-0.74s-1.35-0.17-2.38-0.17v-1.34l6.72-0.72h1.15v17.62
			c0,1.41,0.19,2.29,0.58,2.64c0.38,0.35,1.15,0.53,2.3,0.53h0.48v1.3l-6.1,1.1h-1.06v-3.7h-0.24c-0.83,0.83-1.66,1.54-2.47,2.14
			c-0.82,0.59-1.66,1.04-2.54,1.34C129.64,303.87,128.69,304.02,127.66,304.02z"/>
		<path class="st10" d="M157.57,314.1h-12.14v-1.34c1.5,0,2.46-0.25,2.88-0.74s0.62-1.42,0.62-2.76V285.5c0-0.93-0.1-1.57-0.31-1.92
			s-0.71-0.53-1.51-0.53c-0.32,0-0.83,0.03-1.54,0.1v-1.39l6.05-1.34h1.2v4.03h0.14c1.15-1.34,2.33-2.38,3.53-3.1
			s2.5-1.08,3.91-1.08c1.6,0,3,0.46,4.2,1.37s2.14,2.18,2.83,3.79c0.69,1.62,1.03,3.48,1.03,5.59c0,2.72-0.47,5.05-1.42,6.98
			c-0.94,1.94-2.22,3.42-3.82,4.46c-1.6,1.04-3.36,1.56-5.28,1.56c-0.9,0-1.75-0.1-2.57-0.31s-1.58-0.55-2.28-1.03h-0.19v6.29
			c0,1.02,0.13,1.81,0.38,2.35c0.26,0.54,0.72,0.91,1.39,1.1s1.63,0.29,2.88,0.29v1.39H157.57z M158.19,302.15
			c1.7,0,3.1-0.8,4.22-2.4s1.68-4.06,1.68-7.39c0-3.04-0.5-5.27-1.49-6.7c-0.99-1.42-2.38-2.14-4.18-2.14
			c-1.28,0-2.41,0.34-3.38,1.01c-0.98,0.67-1.69,1.31-2.14,1.92v12.53c0.32,0.32,0.72,0.74,1.2,1.25s1.06,0.96,1.73,1.34
			S157.3,302.15,158.19,302.15z"/>
		<path class="st10" d="M182.48,303.54h-10.9v-1.39c1.25,0,2.12-0.18,2.62-0.53s0.74-1.2,0.74-2.54V274.5c0-0.83-0.23-1.36-0.7-1.58
			c-0.46-0.22-1.02-0.34-1.66-0.34c-0.38,0-0.85,0.03-1.39,0.1v-1.34l6.43-1.68h1.3v29.23c0,0.83,0.06,1.49,0.19,1.97
			s0.45,0.82,0.96,1.01c0.51,0.19,1.31,0.29,2.4,0.29v1.38H182.48z M196.83,303.54h-11.04v-1.39c1.12,0,1.92-0.11,2.4-0.34
			c0.48-0.22,0.78-0.58,0.91-1.06s0.19-1.1,0.19-1.87v-8.3c0-1.31-0.1-2.52-0.29-3.62s-0.6-1.98-1.22-2.64s-1.59-0.98-2.9-0.98
			c-0.99,0-2,0.26-3.02,0.79s-2.19,1.43-3.5,2.71l0.05-2.64h0.67c1.5-1.41,2.86-2.42,4.06-3.02c1.2-0.61,2.44-0.91,3.72-0.91
			c1.38,0,2.49,0.27,3.34,0.82c0.85,0.54,1.5,1.26,1.94,2.14c0.45,0.88,0.75,1.84,0.91,2.88s0.24,2.06,0.24,3.05v9.55
			c0,1.28,0.22,2.18,0.65,2.69s1.4,0.77,2.9,0.77L196.83,303.54L196.83,303.54z"/>
		<path class="st10" d="M210.22,304.02c-3.36,0-5.99-1.05-7.9-3.14c-1.9-2.1-2.86-5.08-2.86-8.95c0-2.33,0.45-4.38,1.34-6.12
			c0.9-1.74,2.15-3.1,3.77-4.08c1.62-0.98,3.5-1.46,5.64-1.46c3.3,0,5.9,1.02,7.8,3.07s2.86,4.85,2.86,8.4
			c0,2.69-0.46,4.94-1.37,6.77s-2.17,3.2-3.77,4.13C214.14,303.56,212.3,304.02,210.22,304.02z M210.42,302.1
			c1.31,0,2.42-0.3,3.31-0.91c0.9-0.61,1.58-1.65,2.04-3.12s0.7-3.5,0.7-6.1c0-2.94-0.54-5.33-1.61-7.15
			c-1.07-1.82-2.68-2.74-4.82-2.74c-1.82,0-3.3,0.77-4.42,2.3c-1.12,1.54-1.68,3.84-1.68,6.91c0,3.81,0.57,6.57,1.7,8.28
			S208.37,302.14,210.42,302.1z"/>
		<path class="st10" d="M235.9,303.54h-12v-1.39c1.06,0,1.83-0.09,2.33-0.26s0.82-0.5,0.96-0.96c0.14-0.46,0.22-1.14,0.22-2.04
			v-13.2c0-0.86-0.07-1.51-0.22-1.94c-0.14-0.43-0.65-0.65-1.51-0.65c-0.48,0-0.98,0.03-1.49,0.1v-1.34l5.95-1.44h1.15v4.94h0.14
			c0.83-1.18,1.57-2.16,2.21-2.93c0.64-0.77,1.27-1.34,1.9-1.73c0.62-0.38,1.32-0.58,2.09-0.58c0.93,0,1.62,0.24,2.09,0.72
			c0.46,0.48,0.7,1.14,0.7,1.97c0,0.9-0.22,1.55-0.65,1.97s-0.92,0.62-1.46,0.62c-0.51,0-0.97-0.14-1.37-0.41s-0.74-0.54-1.03-0.82
			c-0.29-0.27-0.53-0.41-0.72-0.41c-0.54,0-1.17,0.42-1.87,1.25c-0.7,0.83-1.34,1.73-1.92,2.69v10.94c0,0.99,0.13,1.75,0.38,2.26
			s0.71,0.85,1.37,1.01s1.58,0.24,2.76,0.24v1.39H235.9z"/>
		<path class="st10" d="M253.09,303.54h-10.8v-1.34c1.09,0,1.86-0.1,2.33-0.31c0.46-0.21,0.75-0.57,0.86-1.08
			c0.11-0.51,0.17-1.22,0.17-2.11v-13.39c0-1.02-0.18-1.66-0.53-1.9s-0.88-0.36-1.58-0.36c-0.32,0-0.72,0.03-1.2,0.1v-1.39
			l6.05-1.34h1.24v18.29c0,0.93,0.06,1.65,0.19,2.16s0.44,0.86,0.94,1.06c0.5,0.19,1.27,0.29,2.33,0.29V303.54z M247.71,276.66
			c-0.8,0-1.46-0.27-1.97-0.82c-0.51-0.54-0.77-1.18-0.77-1.92c0-0.74,0.25-1.37,0.74-1.9c0.5-0.53,1.16-0.79,1.99-0.79
			s1.5,0.26,1.99,0.79c0.5,0.53,0.74,1.16,0.74,1.9s-0.25,1.38-0.74,1.92C249.21,276.39,248.54,276.66,247.71,276.66z"/>
		<path class="st10" d="M261.97,303.88c-1.86,0-3.27-0.51-4.25-1.54c-0.98-1.02-1.46-2.3-1.46-3.84c0-1.28,0.29-2.36,0.89-3.24
			c0.59-0.88,1.38-1.62,2.35-2.23c0.98-0.61,2.03-1.12,3.17-1.54c1.13-0.42,2.25-0.77,3.34-1.06s2.05-0.56,2.88-0.82v-2.11
			c0-2.08-0.36-3.56-1.08-4.44s-1.8-1.32-3.24-1.32c-1.38,0-2.26,0.29-2.64,0.86c-0.38,0.58-0.58,1.58-0.58,3.02
			c0,0.74-0.18,1.29-0.55,1.66s-0.89,0.55-1.56,0.55c-0.48,0-0.94-0.18-1.37-0.55s-0.65-0.95-0.65-1.75c0-0.9,0.34-1.74,1.03-2.54
			c0.69-0.8,1.66-1.46,2.93-1.97c1.26-0.51,2.76-0.77,4.49-0.77c2.62,0,4.48,0.61,5.57,1.82c1.09,1.22,1.63,3.07,1.63,5.57v10.9
			c0,0.99,0.11,1.63,0.34,1.92s0.59,0.43,1.1,0.43c0.45,0,0.86-0.11,1.22-0.34s0.71-0.51,1.03-0.86l0.72,0.77
			c-0.8,1.15-1.56,1.99-2.28,2.52s-1.69,0.79-2.9,0.79c-1.12,0-1.85-0.32-2.18-0.96c-0.34-0.64-0.58-1.55-0.74-2.74l-0.29-0.58v-8.3
			c-1.44,0.35-2.8,0.77-4.08,1.25s-2.32,1.1-3.12,1.87s-1.2,1.78-1.2,3.02c0,1.18,0.32,2.13,0.96,2.83c0.64,0.71,1.47,1.06,2.5,1.06
			c0.83,0,1.7-0.21,2.62-0.62s1.8-1.01,2.66-1.78l0.38,1.73h-0.58c-0.74,0.64-1.45,1.22-2.14,1.73s-1.42,0.9-2.21,1.18
			S262.99,303.88,261.97,303.88z"/>
	</g>
</g>
<linearGradient id="SVGID_00000129194560541370557140000014125885236837294728_" gradientUnits="userSpaceOnUse" x1="19.2788" y1="245.5349" x2="352.8733" y2="245.5349" gradientTransform="matrix(0.9249 -0.3803 -0.3803 -0.9249 107.3548 488.7619)">
	<stop  offset="0.0311" style="stop-color:#FFFFFF"/>
	<stop  offset="0.2056" style="stop-color:#FFF33B"/>
	<stop  offset="0.211" style="stop-color:#FFEA43"/>
	<stop  offset="0.2398" style="stop-color:#E7D059"/>
	<stop  offset="0.2692" style="stop-color:#D7BF64"/>
	<stop  offset="0.2994" style="stop-color:#CEB569"/>
	<stop  offset="0.3316" style="stop-color:#CBB26A"/>
	<stop  offset="0.8674" style="stop-color:#E8E1A7"/>
</linearGradient>
<circle style="fill:none;stroke:url(#SVGID_00000129194560541370557140000014125885236837294728_);stroke-width:8;stroke-miterlimit:10;" cx="186.08" cy="190.9" r="162.76"/>
</svg>
