<?xml version="1.0" encoding="utf-8"?>
<!-- Generator: Adobe Illustrator 28.0.0, SVG Export Plug-In . SVG Version: 6.00 Build 0)  -->
<svg version="1.1" id="Layer_1" xmlns="http://www.w3.org/2000/svg" xmlns:xlink="http://www.w3.org/1999/xlink" x="0px" y="0px"
	 viewBox="0 0 98.73 107.59" style="enable-background:new 0 0 98.73 107.59;" xml:space="preserve">
<style type="text/css">
	.st0{fill:#707071;}
	.st1{fill:#A9A8A9;}
	.st2{fill:#757576;}
	.st3{fill:#FFFFFF;}
</style>
<path class="st0" d="M32.81,7.62c-1.12-0.15-2.98-0.22-3.45,0.34c-0.79,0.93,3.01,2.74,6.82,6.19c3.52,3.18,7.54,8.18,5.59,9.56
	c-0.93,0.66-2.65,0.08-4.35,0.13c-7.52,0.25-12.33,13.05-13.96,17.53c-11.51,31.61-7.98,39.47-4.03,44.33
	c1.56,1.92,3.04,3.19,3.41,3.51c6.64,5.62,20.76,12.23,36.6,9.78C75.12,96.55,82,86.86,83.32,84.86c3.79-5.74,3.48-11.26,2.17-17.11
	c-3.82-16.99-15.07-32.11-25.74-43.3c-1.45-1.26-3.3-2.32-5.58-2.47c-2.14-0.15-3.31,0.6-4.96,0.21c-2.08-0.49-2.8-2.27-3.41-3.51
	C43.64,14.32,38.68,8.42,32.81,7.62z"/>
<path class="st1" d="M36.55,10.01c-0.98-0.15-2.6-0.21-3.01,0.32c-0.69,0.88,2.62,2.6,5.96,5.86c3.07,3.01,6.58,7.75,4.88,9.06
	c-0.82,0.62-2.32,0.07-3.8,0.13c-6.56,0.24-10.76,12.37-12.18,16.61c-10.05,29.96-6.97,37.41-3.52,42.02
	c1.36,1.82,2.65,3.02,2.98,3.32c5.79,5.33,18.12,11.59,31.95,9.27c13.68-2.3,19.69-11.48,20.85-13.37
	c3.31-5.44,3.04-10.68,1.9-16.22C79.21,50.9,69.38,36.57,60.07,25.97c-1.27-1.19-2.89-2.2-4.87-2.35c-1.87-0.14-2.89,0.57-4.33,0.2
	c-1.82-0.47-2.44-2.15-2.98-3.32C46,16.36,41.67,10.77,36.55,10.01z"/>
<path class="st2" d="M37.89,62.32c-2.98,5.56-0.17,10.6,1.49,13.58c1.89,3.39,3.94,4.72,4.87,5.26c0.91,0.53,4.16,2.36,9.12,2.48
	c0.4,0.01,6.87,0.09,11.34-3.27c2.87-2.16,3.38-4.58,3.7-6.27c1.46-7.68-6.11-13.61-8.29-15.18c-3.19-2.31-6.77-4.88-11.32-4.61
	C41.96,54.73,38.46,61.26,37.89,62.32z"/>
<path d="M38.32,69.36c-1.59,0.54-0.31,4.08,0,4.95c0.87,2.41,2.35,6.52,8.37,8.45c7.31,2.34,14.48-0.71,15.2-1.03
	c3.28-1.45,6.52-4.1,5.58-5.15c-1.13-1.26-6.69,1.49-13.65,0.41C44.58,75.56,40.62,68.59,38.32,69.36z"/>
<path class="st3" d="M42.52,60.98c-0.2,0.3-0.39,0.69-0.13,0.89c0.86,0.67,4.97-2.13,9.39-1.73c4.49,0.41,6.78,3.91,7.75,3.51
	c0.65-0.27-0.13-1.95-1.02-3.02c-0.43-0.51-1.73-2.08-4.56-2.75c-3.82-0.91-7.19,0.55-7.57,0.72"/>
</svg>
