<?xml version="1.0" encoding="utf-8"?>
<!-- Generator: Adobe Illustrator 28.0.0, SVG Export Plug-In . SVG Version: 6.00 Build 0)  -->
<svg version="1.1" id="Layer_1" xmlns="http://www.w3.org/2000/svg" xmlns:xlink="http://www.w3.org/1999/xlink" x="0px" y="0px"
	 viewBox="0 0 363.29 146.84" style="enable-background:new 0 0 363.29 146.84;" xml:space="preserve">
<style type="text/css">
	.st0{display:none;}
	.st1{display:inline;fill:none;stroke:url(#SVGID_1_);stroke-width:3;stroke-miterlimit:10;}
	.st2{display:inline;fill:none;stroke:url(#SVGID_00000101077643307263774440000005110574876124561821_);stroke-miterlimit:10;}
	
		.st3{display:inline;fill:none;stroke:url(#SVGID_00000075121148522008011940000004818743919519182757_);stroke-width:3;stroke-miterlimit:10;}
	
		.st4{display:inline;fill:none;stroke:url(#SVGID_00000080197861854044224410000007242190953398041737_);stroke-width:3;stroke-miterlimit:10;}
	
		.st5{display:inline;fill:none;stroke:url(#SVGID_00000100363924015747161210000008001391164860079294_);stroke-width:3;stroke-miterlimit:10;}
	
		.st6{display:inline;fill:none;stroke:url(#SVGID_00000138553042242924828140000008160597818993226163_);stroke-width:3;stroke-miterlimit:10;}
	
		.st7{display:inline;fill:none;stroke:url(#SVGID_00000016043732235593514310000010210908697592822959_);stroke-width:3;stroke-miterlimit:10;}
	
		.st8{display:inline;fill:none;stroke:url(#SVGID_00000106855415206737223850000012678033782960199047_);stroke-width:3;stroke-miterlimit:10;}
	
		.st9{display:inline;fill:none;stroke:url(#SVGID_00000153705161650351477620000004127538300722901167_);stroke-width:3;stroke-miterlimit:10;}
	.st10{fill:#25763B;stroke:#CBB26A;stroke-width:0.25;stroke-miterlimit:10;}
	.st11{fill:none;stroke:url(#SVGID_00000125580414337917492550000001213863307049310395_);stroke-width:3;stroke-miterlimit:10;}
	.st12{fill:none;stroke:url(#SVGID_00000129184832137515599300000014542203023247719610_);stroke-miterlimit:10;}
	.st13{fill:none;stroke:url(#SVGID_00000068658460062239062220000009874507568716143268_);stroke-width:3;stroke-miterlimit:10;}
	.st14{fill:none;stroke:url(#SVGID_00000103250450683751066590000015032286413496384939_);stroke-width:3;stroke-miterlimit:10;}
	.st15{fill:none;stroke:url(#SVGID_00000099632980776895294400000003343076601479836322_);stroke-width:3;stroke-miterlimit:10;}
	.st16{fill:none;stroke:url(#SVGID_00000023258232360526003170000017434809333587942540_);stroke-width:3;stroke-miterlimit:10;}
	.st17{fill:none;stroke:url(#SVGID_00000174594230007494579370000006786476015745714086_);stroke-width:3;stroke-miterlimit:10;}
	.st18{fill:none;stroke:url(#SVGID_00000008134532575534547410000017245506632261708187_);stroke-width:3;stroke-miterlimit:10;}
	.st19{fill:none;stroke:url(#SVGID_00000061461194253563742700000008140172343419450299_);stroke-width:3;stroke-miterlimit:10;}
</style>
<g class="st0">
	
		<linearGradient id="SVGID_1_" gradientUnits="userSpaceOnUse" x1="154.6326" y1="-16.4829" x2="205.4894" y2="-16.4829" gradientTransform="matrix(0.9809 0.1946 -0.1946 0.9809 -18.6853 -49.4902)">
		<stop  offset="0" style="stop-color:#FFF33B"/>
		<stop  offset="0.0334" style="stop-color:#FFEA43"/>
		<stop  offset="0.2096" style="stop-color:#E7D059"/>
		<stop  offset="0.3897" style="stop-color:#D7BF64"/>
		<stop  offset="0.5746" style="stop-color:#CEB569"/>
		<stop  offset="0.7716" style="stop-color:#CBB26A"/>
		<stop  offset="1" style="stop-color:#E8E1A7"/>
	</linearGradient>
	<path class="st1" d="M168.53-53.97c1.54-5.69,3.09-11.39,4.63-17.08c2.37,0.67,4.75,1.33,7.12,2c-1.84,5.75-3.68,11.5-5.52,17.25
		c1.15,0.3,2.77,0.89,4.37,2.14c4.1,3.21,4.94,8.37,5.37,11.18c0.95,6.35-1.01,7.27-2.37,19.49c-0.85,7.64-0.34,9.62-2.05,14.26
		c-0.83,2.26-2.21,5.89-5.34,9.16c-5.71,5.97-13.38,6.67-16.26,6.75c-0.22,0.01-0.46,0.01-0.73,0.01c-1.58,0-9.2-0.16-15.96-5.76
		c-1.5-1.24-4.26-3.58-6.21-7.64c-4.59-9.56-0.29-19.49,0.49-21.29c1.57-3.62,2.13-2.82,8.25-11.03
		c8.57-11.48,9.85-16.22,15.67-18.52C163.4-54.41,166.58-54.24,168.53-53.97z"/>
	
		<linearGradient id="SVGID_00000160154836431169135640000000132857185529825930_" gradientUnits="userSpaceOnUse" x1="189.3106" y1="-39.9093" x2="189.3106" y2="-39.9093" gradientTransform="matrix(0.9809 0.1946 -0.1946 0.9809 -18.6853 -49.4902)">
		<stop  offset="0" style="stop-color:#FFF33B"/>
		<stop  offset="0.0334" style="stop-color:#FFEA43"/>
		<stop  offset="0.2096" style="stop-color:#E7D059"/>
		<stop  offset="0.3897" style="stop-color:#D7BF64"/>
		<stop  offset="0.5746" style="stop-color:#CEB569"/>
		<stop  offset="0.7716" style="stop-color:#CBB26A"/>
		<stop  offset="1" style="stop-color:#E8E1A7"/>
	</linearGradient>
	
		<path style="display:inline;fill:none;stroke:url(#SVGID_00000160154836431169135640000000132857185529825930_);stroke-miterlimit:10;" d="
		M174.77-51.81"/>
	
		<linearGradient id="SVGID_00000173135972138324428840000006508759880662102404_" gradientUnits="userSpaceOnUse" x1="188.4026" y1="-47.137" x2="222.3275" y2="-47.137" gradientTransform="matrix(0.9809 0.1946 -0.1946 0.9809 -18.6853 -49.4902)">
		<stop  offset="0" style="stop-color:#FFF33B"/>
		<stop  offset="0.0334" style="stop-color:#FFEA43"/>
		<stop  offset="0.2096" style="stop-color:#E7D059"/>
		<stop  offset="0.3897" style="stop-color:#D7BF64"/>
		<stop  offset="0.5746" style="stop-color:#CEB569"/>
		<stop  offset="0.7716" style="stop-color:#CBB26A"/>
		<stop  offset="1" style="stop-color:#E8E1A7"/>
	</linearGradient>
	
		<path style="display:inline;fill:none;stroke:url(#SVGID_00000173135972138324428840000006508759880662102404_);stroke-width:3;stroke-miterlimit:10;" d="
		M207.62-56.72c-2.22-2.3-5.88-5.39-11.07-7.23c-1.79-0.63-5.05-1.74-9.29-1.38c-2.4,0.21-5.07,0.44-7.48,2.53
		c-0.83,0.72-3.36,3.17-3.45,6.81c-0.01,0.48-0.03,1.42,0.32,2.45c1.16,3.44,5.38,4.75,7.65,5.46c2.57,0.8,9.01,2.81,15.69-0.84
		C204.34-51.3,206.63-54.91,207.62-56.72z"/>
	
		<linearGradient id="SVGID_00000074430832612403228840000015087935843700143022_" gradientUnits="userSpaceOnUse" x1="187.4375" y1="-46.2223" x2="210.2623" y2="-46.2223" gradientTransform="matrix(0.9809 0.1946 -0.1946 0.9809 -18.6853 -49.4902)">
		<stop  offset="0" style="stop-color:#FFF33B"/>
		<stop  offset="0.0334" style="stop-color:#FFEA43"/>
		<stop  offset="0.2096" style="stop-color:#E7D059"/>
		<stop  offset="0.3897" style="stop-color:#D7BF64"/>
		<stop  offset="0.5746" style="stop-color:#CEB569"/>
		<stop  offset="0.7716" style="stop-color:#CBB26A"/>
		<stop  offset="1" style="stop-color:#E8E1A7"/>
	</linearGradient>
	
		<path style="display:inline;fill:none;stroke:url(#SVGID_00000074430832612403228840000015087935843700143022_);stroke-width:3;stroke-miterlimit:10;" d="
		M194.92-54.84c0-0.51,0-1.03,0-1.54c-1.93-0.58-4.48-1.17-7.48-1.42c-4.36-0.37-7.89,0.13-10.22,0.63c-0.3,0.39-0.6,0.79-0.9,1.18
		C182.52-55.61,188.72-55.23,194.92-54.84z"/>
	
		<linearGradient id="SVGID_00000007402550920496572550000000703351853341134749_" gradientUnits="userSpaceOnUse" x1="180.4604" y1="-6.9591" x2="199.5018" y2="-6.9591" gradientTransform="matrix(0.9809 0.1946 -0.1946 0.9809 -18.6853 -49.4902)">
		<stop  offset="0" style="stop-color:#FFF33B"/>
		<stop  offset="0.0334" style="stop-color:#FFEA43"/>
		<stop  offset="0.2096" style="stop-color:#E7D059"/>
		<stop  offset="0.3897" style="stop-color:#D7BF64"/>
		<stop  offset="0.5746" style="stop-color:#CEB569"/>
		<stop  offset="0.7716" style="stop-color:#CBB26A"/>
		<stop  offset="1" style="stop-color:#E8E1A7"/>
	</linearGradient>
	
		<path style="display:inline;fill:none;stroke:url(#SVGID_00000007402550920496572550000000703351853341134749_);stroke-width:3;stroke-miterlimit:10;" d="
		M174.77-51.81c1.46,2.42,3.43,6.37,4.15,11.53c0.42,2.97,0.13,5.87-0.47,11.53c-0.94,8.86-2.29,14.62-2.91,17.09
		c-1.69,6.77-2.95,9.13-3.97,10.72c-0.57,0.89-2.24,3.39-5.13,5.85c-4.66,3.96-9.61,5.37-12.55,5.93"/>
	
		<linearGradient id="SVGID_00000170964155386280113050000007659783883027106439_" gradientUnits="userSpaceOnUse" x1="159.2189" y1="-7.1842" x2="192.3905" y2="-7.1842" gradientTransform="matrix(0.9809 0.1946 -0.1946 0.9809 -18.6853 -49.4902)">
		<stop  offset="0" style="stop-color:#FFF33B"/>
		<stop  offset="0.0334" style="stop-color:#FFEA43"/>
		<stop  offset="0.2096" style="stop-color:#E7D059"/>
		<stop  offset="0.3897" style="stop-color:#D7BF64"/>
		<stop  offset="0.5746" style="stop-color:#CEB569"/>
		<stop  offset="0.7716" style="stop-color:#CBB26A"/>
		<stop  offset="1" style="stop-color:#E8E1A7"/>
	</linearGradient>
	
		<path style="display:inline;fill:none;stroke:url(#SVGID_00000170964155386280113050000007659783883027106439_);stroke-width:3;stroke-miterlimit:10;" d="
		M166.51-47.85c0.44,0.12,2.64,0.74,4.24,2.82c1.79,2.33,1.82,5.2,0.06,16.63c-1.44,9.37-1.56,8.1-2.31,13.85
		c-0.77,5.9-0.6,6.87-1.56,9.05c-2.87,6.52-9.22,8.87-9.57,9c-0.93,0.33-8.31,2.8-13.98-1.81c-3.18-2.58-4.2-6.06-4.67-7.68
		c-2.4-8.17,1.73-15.45,2.53-16.81c1.51-2.55,1.61-1.48,6.42-7.7c2.21-2.85,3.83-4.95,5.8-8c3.01-4.66,2.91-5.5,4.75-6.98
		C158.92-46.06,162.45-48.92,166.51-47.85z"/>
	
		<linearGradient id="SVGID_00000112631517646502154460000004323290447415910534_" gradientUnits="userSpaceOnUse" x1="165.4395" y1="1.8055" x2="185.8673" y2="1.8055" gradientTransform="matrix(0.9809 0.1946 -0.1946 0.9809 -18.6853 -49.4902)">
		<stop  offset="0" style="stop-color:#FFF33B"/>
		<stop  offset="0.0334" style="stop-color:#FFEA43"/>
		<stop  offset="0.2096" style="stop-color:#E7D059"/>
		<stop  offset="0.3897" style="stop-color:#D7BF64"/>
		<stop  offset="0.5746" style="stop-color:#CEB569"/>
		<stop  offset="0.7716" style="stop-color:#CBB26A"/>
		<stop  offset="1" style="stop-color:#E8E1A7"/>
	</linearGradient>
	
		<ellipse style="display:inline;fill:none;stroke:url(#SVGID_00000112631517646502154460000004323290447415910534_);stroke-width:3;stroke-miterlimit:10;" cx="153.26" cy="-13.54" rx="8.7" ry="9.02"/>
	
		<linearGradient id="SVGID_00000039832360965317877770000012278385030554311099_" gradientUnits="userSpaceOnUse" x1="170.6266" y1="-2.2478" x2="178.9444" y2="-2.2478" gradientTransform="matrix(0.9809 0.1946 -0.1946 0.9809 -18.6853 -49.4902)">
		<stop  offset="0" style="stop-color:#FFF33B"/>
		<stop  offset="0.0334" style="stop-color:#FFEA43"/>
		<stop  offset="0.2096" style="stop-color:#E7D059"/>
		<stop  offset="0.3897" style="stop-color:#D7BF64"/>
		<stop  offset="0.5746" style="stop-color:#CEB569"/>
		<stop  offset="0.7716" style="stop-color:#CBB26A"/>
		<stop  offset="1" style="stop-color:#E8E1A7"/>
	</linearGradient>
	
		<path style="display:inline;fill:none;stroke:url(#SVGID_00000039832360965317877770000012278385030554311099_);stroke-width:3;stroke-miterlimit:10;" d="
		M153.54-17.32c0.89-0.09,1.24,0.26,1.8,0.06c0.34-0.12,0.63-0.39,0.6-0.65c-0.06-0.51-1.41-0.87-2.42-0.92
		c-1.19-0.05-2.7,0.3-2.99,1.01c-0.12,0.29-0.06,0.72,0.3,0.89c0.27,0.13,0.61,0.08,1.16-0.01
		C152.93-17.08,152.92-17.26,153.54-17.32z"/>
	
		<linearGradient id="SVGID_00000052806585243228933380000018042714916040800900_" gradientUnits="userSpaceOnUse" x1="169.5581" y1="3.2418" x2="175.3801" y2="3.2418" gradientTransform="matrix(0.9809 0.1946 -0.1946 0.9809 -18.6853 -49.4902)">
		<stop  offset="0" style="stop-color:#FFF33B"/>
		<stop  offset="0.0334" style="stop-color:#FFEA43"/>
		<stop  offset="0.2096" style="stop-color:#E7D059"/>
		<stop  offset="0.3897" style="stop-color:#D7BF64"/>
		<stop  offset="0.5746" style="stop-color:#CEB569"/>
		<stop  offset="0.7716" style="stop-color:#CBB26A"/>
		<stop  offset="1" style="stop-color:#E8E1A7"/>
	</linearGradient>
	
		<ellipse style="display:inline;fill:none;stroke:url(#SVGID_00000052806585243228933380000018042714916040800900_);stroke-width:3;stroke-miterlimit:10;" cx="149.86" cy="-12.76" rx="1.41" ry="1.46"/>
</g>
<g>
	<g>
		<path class="st10" d="M136.47,61.96h-11.5v-2.37c0.87,0,1.59-0.15,2.14-0.44c0.56-0.29,1.06-0.83,1.51-1.6
			c0.45-0.77,0.93-1.87,1.44-3.3l10.95-28.71h5.3l10.9,28.82c0.67,1.76,1.39,3.07,2.14,3.93s1.71,1.29,2.85,1.29v2.37h-16.2v-2.37
			c0.44,0,0.88-0.03,1.34-0.08c0.45-0.06,0.84-0.21,1.16-0.47c0.32-0.26,0.48-0.66,0.48-1.21c0-0.4-0.1-1.01-0.3-1.82
			c-0.2-0.81-0.44-1.59-0.71-2.36l-1.41-4.02l-0.4-1.43l-4.74-14.41h-0.2l-5.35,14.41l-0.4,1.43l-1.72,4.73
			c-0.13,0.48-0.29,1.01-0.45,1.59c-0.17,0.59-0.25,1.12-0.25,1.59c0,0.88,0.26,1.44,0.78,1.68c0.52,0.24,1.4,0.36,2.65,0.36V61.96z
			 M147.52,50.35H134.5l0.91-2.86h11.2L147.52,50.35z"/>
		<path class="st10" d="M178.15,62.34h-4.44l-7.62-19.63c-0.47-1.28-0.92-2.25-1.34-2.92c-0.42-0.66-0.88-1.1-1.39-1.32
			c-0.5-0.22-1.09-0.33-1.77-0.33v-2.2h14.18v2.2c-1.04,0-1.78,0.14-2.22,0.41c-0.44,0.27-0.66,0.65-0.66,1.13
			c0,0.33,0.05,0.69,0.15,1.07c0.1,0.38,0.22,0.76,0.35,1.13l3.63,9.62l1.11,3.46h0.4l1.21-3.57l3.83-9.74
			c0.2-0.73,0.3-1.39,0.3-1.98c0-0.62-0.22-1.04-0.66-1.24c-0.44-0.2-1.14-0.3-2.12-0.3v-2.2h9.69v2.2c-1.01,0-1.8,0.28-2.37,0.83
			s-1.18,1.6-1.82,3.13L178.15,62.34z"/>
		<path class="st10" d="M203.22,62.51c-3.97,0-7-1.1-9.08-3.3c-2.09-2.2-3.13-5.68-3.13-10.45c0-2.57,0.44-4.87,1.31-6.9
			c0.87-2.04,2.23-3.64,4.06-4.81c1.83-1.17,4.16-1.76,6.99-1.76c4.04,0,7.06,1.16,9.06,3.46s3,5.45,3,9.41
			c0,3.12-0.47,5.75-1.41,7.89c-0.94,2.14-2.31,3.76-4.11,4.84C208.11,61.97,205.88,62.51,203.22,62.51z M203.37,59.82
			c1.11,0,1.98-0.41,2.62-1.24c0.64-0.82,1.09-2.06,1.36-3.71c0.27-1.65,0.4-3.74,0.4-6.27c0-3.45-0.38-6.09-1.13-7.92
			c-0.76-1.83-1.98-2.75-3.66-2.75c-1.61,0-2.73,0.93-3.36,2.78c-0.62,1.85-0.93,4.35-0.93,7.51c0,3.92,0.37,6.84,1.11,8.75
			C200.53,58.86,201.73,59.82,203.37,59.82z"/>
		<path class="st10" d="M239.9,52.67l1.31,0.88c-0.67,1.61-1.46,3.11-2.35,4.48c-0.89,1.38-2.04,2.48-3.43,3.3
			c-1.4,0.83-3.22,1.24-5.47,1.24c-2.32,0-4.33-0.5-6.03-1.49c-1.7-0.99-3.01-2.45-3.94-4.37c-0.93-1.92-1.39-4.32-1.39-7.18
			c0-2.79,0.46-5.25,1.39-7.4c0.92-2.15,2.34-3.83,4.24-5.06c1.9-1.23,4.3-1.84,7.19-1.84s5.15,0.58,6.79,1.73
			c1.63,1.15,2.45,2.59,2.45,4.32c0,1.21-0.36,2.11-1.08,2.69c-0.72,0.59-1.57,0.88-2.55,0.88c-0.94,0-1.64-0.24-2.09-0.71
			c-0.45-0.48-0.8-1.06-1.03-1.76c-0.24-0.7-0.47-1.38-0.71-2.06c-0.24-0.68-0.58-1.26-1.04-1.73s-1.13-0.71-2.04-0.71
			c-1.55,0-2.65,0.77-3.3,2.31s-0.98,3.78-0.98,6.71c0,3.15,0.46,5.57,1.39,7.26c0.92,1.69,2.73,2.53,5.42,2.53
			c1.72,0,3.12-0.34,4.21-1.02C237.94,54.98,238.96,53.99,239.9,52.67z"/>
		<path class="st10" d="M250.04,62.57c-1.85,0-3.37-0.49-4.57-1.46c-1.19-0.97-1.79-2.58-1.79-4.81c0-1.54,0.3-2.83,0.91-3.88
			c0.61-1.04,1.4-1.92,2.37-2.61c0.97-0.7,2.05-1.27,3.23-1.73c1.18-0.46,2.35-0.85,3.53-1.18c1.18-0.33,2.24-0.64,3.18-0.93v-2.64
			c0-2.35-0.22-3.88-0.66-4.59c-0.44-0.71-1.26-1.07-2.47-1.07c-1.01,0-1.69,0.26-2.04,0.77c-0.35,0.51-0.53,1.56-0.53,3.13
			c0,1.25-0.34,2.15-1.01,2.7s-1.45,0.83-2.32,0.83c-0.74,0-1.44-0.3-2.09-0.91c-0.66-0.6-0.98-1.53-0.98-2.78
			c0-1.1,0.39-2.12,1.16-3.05c0.77-0.94,1.87-1.69,3.3-2.26c1.43-0.57,3.12-0.85,5.07-0.85c3.16,0,5.58,0.66,7.27,1.98
			c1.68,1.32,2.52,3.5,2.52,6.54v11.94c0,1.1,0.13,1.81,0.38,2.14c0.25,0.33,0.65,0.5,1.19,0.5c0.4,0,0.81-0.15,1.24-0.44
			c0.42-0.29,0.82-0.64,1.19-1.04l1.11,1.21c-0.84,1.36-1.77,2.44-2.8,3.25c-1.03,0.81-2.48,1.21-4.36,1.21
			c-1.82,0-3.04-0.31-3.66-0.93c-0.62-0.62-1.03-1.71-1.24-3.25l-0.25-1.1V48.1c-1.31,0.44-2.41,0.91-3.3,1.4
			c-0.89,0.49-1.56,1.15-2.02,1.95s-0.68,1.91-0.68,3.3c0,1.36,0.19,2.35,0.58,2.97c0.39,0.62,0.97,0.94,1.74,0.94
			c0.74,0,1.41-0.19,2.02-0.58c0.61-0.38,1.36-1.09,2.27-2.12l0.3,3.08h-0.76c-0.81,0.73-1.52,1.37-2.14,1.9
			c-0.62,0.53-1.29,0.94-2.02,1.21C252.17,62.43,251.22,62.57,250.04,62.57z"/>
		<path class="st10" d="M278.9,62.51c-1.92,0-3.52-0.58-4.79-1.73c-1.28-1.16-2.24-2.7-2.88-4.62c-0.64-1.92-0.96-4.06-0.96-6.41
			c0-3.37,0.51-6.12,1.54-8.25c1.03-2.13,2.4-3.69,4.14-4.7s3.66-1.51,5.78-1.51c0.77,0,1.57,0.09,2.4,0.27
			c0.82,0.18,1.66,0.5,2.5,0.94h0.15v-6.27c0-1.21-0.13-1.99-0.38-2.34s-0.87-0.52-1.84-0.52c-0.24,0-0.72,0.02-1.46,0.05v-2.37
			l8.07-1.92h2.83v32.56c0,1.39,0.2,2.3,0.6,2.72c0.4,0.42,1.08,0.63,2.02,0.63h1.06v2.25l-9.03,0.94h-1.77v-3.52h-0.2
			c-0.94,0.92-2.05,1.78-3.33,2.58C282.06,62.11,280.58,62.51,278.9,62.51z M282.13,57.95c0.98,0,1.78-0.17,2.42-0.52
			c0.64-0.35,1.38-0.83,2.22-1.46V42.66c-0.24-0.99-0.71-1.93-1.41-2.81s-1.75-1.32-3.13-1.32c-1.28,0-2.29,0.77-3.03,2.31
			c-0.74,1.54-1.11,3.96-1.11,7.26c0,3.45,0.34,5.95,1.01,7.51C279.78,57.17,280.79,57.95,282.13,57.95z"/>
		<path class="st10" d="M312.35,62.51c-3.97,0-7-1.1-9.08-3.3c-2.09-2.2-3.13-5.68-3.13-10.45c0-2.57,0.44-4.87,1.31-6.9
			c0.87-2.04,2.23-3.64,4.06-4.81c1.83-1.17,4.16-1.76,6.99-1.76c4.04,0,7.06,1.16,9.06,3.46s3,5.45,3,9.41
			c0,3.12-0.47,5.75-1.41,7.89c-0.94,2.14-2.31,3.76-4.11,4.84C317.24,61.97,315.01,62.51,312.35,62.51z M312.5,59.82
			c1.11,0,1.98-0.41,2.62-1.24c0.64-0.82,1.09-2.06,1.36-3.71c0.27-1.65,0.4-3.74,0.4-6.27c0-3.45-0.38-6.09-1.13-7.92
			c-0.76-1.83-1.98-2.75-3.66-2.75c-1.61,0-2.73,0.93-3.36,2.78c-0.62,1.85-0.93,4.35-0.93,7.51c0,3.92,0.37,6.84,1.11,8.75
			C309.66,58.86,310.86,59.82,312.5,59.82z"/>
		<path class="st10" d="M137.94,128.57c-2.46,0-4.53-0.51-6.23-1.54c-1.7-1.03-2.99-2.55-3.88-4.57c-0.89-2.02-1.34-4.47-1.34-7.37
			c0-3.15,0.55-5.75,1.66-7.78c1.11-2.04,2.58-3.55,4.42-4.54c1.83-0.99,3.84-1.48,6.03-1.48c3.19,0,5.76,1.05,7.69,3.16
			c1.93,2.11,2.92,5.23,2.95,9.38h-15.94l-0.05-2.58h8.07c0-1.5-0.1-2.82-0.3-3.96c-0.2-1.14-0.55-2.02-1.03-2.64
			c-0.49-0.62-1.19-0.93-2.09-0.93c-1.55,0-2.61,0.73-3.18,2.2c-0.57,1.47-0.86,3.83-0.86,7.09c0,2.42,0.25,4.33,0.76,5.72
			c0.5,1.39,1.26,2.39,2.27,3c1.01,0.6,2.25,0.91,3.73,0.91c1.31,0,2.43-0.15,3.35-0.44c0.92-0.29,1.73-0.72,2.42-1.29
			c0.69-0.57,1.3-1.22,1.84-1.95l1.31,0.99c-0.54,1.06-1.1,2.11-1.69,3.14c-0.59,1.03-1.3,1.95-2.12,2.78
			c-0.82,0.82-1.86,1.48-3.1,1.98C141.38,128.32,139.82,128.57,137.94,128.57z"/>
		<path class="st10" d="M162.51,128.51c-2.52,0-4.4-0.71-5.63-2.12c-1.23-1.41-1.84-3.93-1.84-7.56v-10.62c0-1.14-0.1-1.95-0.3-2.45
			c-0.2-0.5-0.56-0.81-1.08-0.94c-0.52-0.13-1.24-0.19-2.14-0.19v-2.25l8.38-0.71h2.37v15.57c0,1.72,0.14,3.01,0.43,3.85
			c0.29,0.84,0.7,1.39,1.24,1.65s1.16,0.38,1.87,0.38c1.08,0,1.97-0.2,2.67-0.61c0.71-0.4,1.53-1.03,2.47-1.87V108
			c0-1.06-0.13-1.83-0.38-2.31c-0.25-0.48-0.69-0.77-1.31-0.88c-0.62-0.11-1.49-0.17-2.6-0.17v-2.25l9.44-0.71h2.07v18.87
			c0,1.72,0.23,2.84,0.71,3.35c0.47,0.51,1.38,0.77,2.72,0.77h0.3v2.04l-8.73,1.59h-1.97v-4.79h-0.2c-1.08,1.25-2.04,2.24-2.9,2.97
			c-0.86,0.73-1.72,1.26-2.57,1.57C164.65,128.35,163.65,128.51,162.51,128.51z"/>
		<path class="st10" d="M199.19,140.06h-15.79v-2.2c1.58,0,2.59-0.28,3.03-0.83c0.44-0.55,0.66-1.59,0.66-3.13V108
			c0-1.1-0.11-1.86-0.33-2.28c-0.22-0.42-0.75-0.63-1.59-0.63c-0.34,0-0.88,0.04-1.61,0.11v-2.31l7.77-1.54h2.88v4.51h0.25
			c1.31-1.43,2.56-2.56,3.76-3.38c1.19-0.83,2.61-1.24,4.26-1.24c1.62,0,3.04,0.43,4.26,1.29c1.23,0.86,2.18,2.2,2.85,4.01
			c0.67,1.82,1.01,4.17,1.01,7.07c0,3.12-0.5,5.79-1.51,8.03c-1.01,2.24-2.35,3.95-4.04,5.14s-3.55,1.79-5.6,1.79
			c-0.94,0-1.82-0.1-2.62-0.3c-0.81-0.2-1.6-0.58-2.37-1.13h-0.15v6.38c0,1.17,0.13,2.07,0.4,2.7c0.27,0.62,0.76,1.04,1.46,1.26
			c0.71,0.22,1.72,0.33,3.03,0.33V140.06z M198.18,125.49c1.31,0,2.4-0.76,3.25-2.28c0.86-1.52,1.29-4.21,1.29-8.06
			c0-3.15-0.32-5.4-0.96-6.74c-0.64-1.34-1.58-2.01-2.83-2.01c-1.01,0-1.9,0.3-2.67,0.91c-0.77,0.6-1.43,1.2-1.97,1.79v13.64
			c0.23,0.37,0.53,0.77,0.88,1.21c0.35,0.44,0.77,0.81,1.26,1.1C196.92,125.34,197.5,125.49,198.18,125.49z"/>
		<path class="st10" d="M227.74,127.96h-14.38v-2.2c1.38,0,2.31-0.21,2.8-0.63s0.73-1.38,0.73-2.89V95.13
			c0-0.95-0.24-1.56-0.71-1.82c-0.47-0.26-1.04-0.38-1.71-0.38c-0.4,0-0.89,0.05-1.46,0.17v-2.25l7.97-1.71h3.13v32.89
			c0,0.88,0.07,1.6,0.2,2.15c0.13,0.55,0.45,0.95,0.96,1.21c0.5,0.26,1.33,0.38,2.47,0.38V127.96z M243.69,127.96h-14.03v-2.2
			c1.04,0,1.79-0.13,2.25-0.38c0.45-0.26,0.74-0.66,0.86-1.21c0.12-0.55,0.18-1.28,0.18-2.2v-7.59c0-1.39-0.07-2.69-0.2-3.88
			c-0.13-1.19-0.47-2.14-1.01-2.86c-0.54-0.71-1.43-1.07-2.67-1.07c-0.98,0-1.86,0.22-2.65,0.66c-0.79,0.44-1.83,1.27-3.1,2.48
			l0.1-3.79h0.91c1.38-1.58,2.64-2.74,3.78-3.49c1.14-0.75,2.49-1.13,4.04-1.13c1.31,0,2.46,0.22,3.46,0.66
			c0.99,0.44,1.82,1.1,2.5,1.98c0.67,0.88,1.19,1.97,1.54,3.27c0.35,1.3,0.53,2.81,0.53,4.54v10.06c0,1.47,0.22,2.49,0.66,3.08
			c0.44,0.59,1.39,0.88,2.88,0.88V127.96z"/>
		<path class="st10" d="M258.37,128.51c-3.97,0-7-1.1-9.08-3.3c-2.09-2.2-3.13-5.68-3.13-10.45c0-2.57,0.44-4.87,1.31-6.9
			s2.23-3.64,4.06-4.81c1.83-1.17,4.16-1.76,6.99-1.76c4.04,0,7.05,1.16,9.06,3.46c2,2.31,3,5.45,3,9.41c0,3.12-0.47,5.75-1.41,7.89
			c-0.94,2.14-2.31,3.76-4.11,4.84C263.25,127.97,261.02,128.51,258.37,128.51z M258.52,125.82c1.11,0,1.98-0.41,2.62-1.24
			c0.64-0.82,1.09-2.06,1.36-3.71c0.27-1.65,0.4-3.74,0.4-6.27c0-3.45-0.38-6.09-1.14-7.92c-0.76-1.83-1.98-2.75-3.66-2.75
			c-1.62,0-2.73,0.93-3.36,2.78c-0.62,1.85-0.93,4.35-0.93,7.51c0,3.92,0.37,6.84,1.11,8.75
			C255.68,124.86,256.87,125.82,258.52,125.82z"/>
		<path class="st10" d="M289.04,127.96H273.2v-2.2c1.11,0,1.92-0.1,2.45-0.3c0.52-0.2,0.87-0.58,1.03-1.13
			c0.17-0.55,0.25-1.34,0.25-2.37v-13.47c0-0.99-0.13-1.75-0.4-2.28c-0.27-0.53-0.84-0.8-1.72-0.8c-0.5,0-1.03,0.04-1.56,0.11v-2.36
			l7.92-1.71h2.88v5.72h0.2c0.91-1.28,1.65-2.37,2.22-3.27c0.57-0.9,1.19-1.59,1.84-2.06c0.66-0.48,1.5-0.71,2.55-0.71
			c1.31,0,2.29,0.4,2.93,1.21s0.96,1.91,0.96,3.3c0,1.58-0.32,2.71-0.96,3.41c-0.64,0.7-1.35,1.04-2.12,1.04
			c-0.74,0-1.37-0.19-1.89-0.58c-0.52-0.39-0.97-0.77-1.34-1.16c-0.37-0.38-0.69-0.58-0.96-0.58c-0.54,0-1.08,0.23-1.64,0.69
			s-1.12,1.05-1.69,1.79v11.33c0,1.17,0.16,2.06,0.48,2.67c0.32,0.61,0.84,1.01,1.56,1.21c0.72,0.2,1.67,0.3,2.85,0.3V127.96z"/>
		<path class="st10" d="M310.69,127.96h-14.93v-2.2c1.11,0,1.93-0.1,2.47-0.3c0.54-0.2,0.9-0.59,1.08-1.15
			c0.18-0.57,0.28-1.37,0.28-2.39v-14.03c0-1.25-0.24-2.01-0.71-2.28c-0.47-0.28-1.09-0.41-1.87-0.41c-0.34,0-0.77,0.04-1.31,0.11
			v-2.31l7.57-1.54h3.53v20.29c0,1.06,0.09,1.89,0.28,2.47c0.18,0.59,0.56,0.99,1.11,1.21c0.55,0.22,1.39,0.33,2.5,0.33V127.96z
			 M303.02,97.99c-1.24,0-2.23-0.39-2.95-1.18c-0.72-0.79-1.08-1.82-1.08-3.11s0.35-2.32,1.06-3.11c0.71-0.79,1.7-1.18,2.98-1.18
			c1.35,0,2.36,0.38,3.05,1.15c0.69,0.77,1.03,1.8,1.03,3.08c0,1.32-0.34,2.38-1.03,3.16C305.38,97.59,304.36,97.99,303.02,97.99z"
			/>
		<path class="st10" d="M319.47,128.57c-1.85,0-3.37-0.49-4.57-1.46c-1.19-0.97-1.79-2.58-1.79-4.81c0-1.54,0.3-2.83,0.91-3.88
			c0.61-1.04,1.4-1.92,2.37-2.61c0.98-0.7,2.05-1.27,3.23-1.73c1.18-0.46,2.35-0.85,3.53-1.18s2.24-0.64,3.18-0.93v-2.64
			c0-2.35-0.22-3.88-0.66-4.59c-0.44-0.71-1.26-1.07-2.47-1.07c-1.01,0-1.69,0.26-2.04,0.77c-0.35,0.51-0.53,1.56-0.53,3.13
			c0,1.25-0.34,2.15-1.01,2.7s-1.45,0.83-2.32,0.83c-0.74,0-1.44-0.3-2.09-0.91c-0.66-0.6-0.98-1.53-0.98-2.78
			c0-1.1,0.39-2.12,1.16-3.05c0.77-0.94,1.88-1.69,3.3-2.26c1.43-0.57,3.12-0.85,5.07-0.85c3.16,0,5.58,0.66,7.27,1.98
			s2.52,3.5,2.52,6.54v11.94c0,1.1,0.13,1.81,0.38,2.14s0.65,0.5,1.19,0.5c0.4,0,0.82-0.15,1.24-0.44c0.42-0.29,0.82-0.64,1.19-1.04
			l1.11,1.21c-0.84,1.36-1.78,2.44-2.8,3.25c-1.03,0.81-2.48,1.21-4.36,1.21c-1.82,0-3.04-0.31-3.66-0.93s-1.03-1.71-1.24-3.25
			l-0.25-1.1v-9.13c-1.31,0.44-2.41,0.91-3.3,1.4c-0.89,0.49-1.56,1.15-2.02,1.95s-0.68,1.91-0.68,3.3c0,1.36,0.19,2.35,0.58,2.97
			c0.39,0.62,0.97,0.94,1.74,0.94c0.74,0,1.41-0.19,2.02-0.58c0.61-0.38,1.36-1.09,2.27-2.12l0.3,3.08h-0.76
			c-0.81,0.73-1.52,1.37-2.14,1.9c-0.62,0.53-1.3,0.94-2.02,1.21C321.59,128.43,320.64,128.57,319.47,128.57z"/>
	</g>
</g>
<g>
	
		<linearGradient id="SVGID_00000023999956648430175590000013508441792547772552_" gradientUnits="userSpaceOnUse" x1="13.2093" y1="71.8338" x2="79.5708" y2="71.8338">
		<stop  offset="0.2928" style="stop-color:#23763B"/>
		<stop  offset="0.3282" style="stop-color:#277B41"/>
		<stop  offset="0.413" style="stop-color:#2C854F"/>
		<stop  offset="0.4998" style="stop-color:#2F8C5B"/>
		<stop  offset="0.5888" style="stop-color:#319162"/>
		<stop  offset="0.6837" style="stop-color:#329265"/>
		<stop  offset="1" style="stop-color:#E8E1A7"/>
	</linearGradient>
	
		<path style="fill:none;stroke:url(#SVGID_00000023999956648430175590000013508441792547772552_);stroke-width:3;stroke-miterlimit:10;" d="
		M58.01,41.76c1.91-7.17,3.82-14.34,5.73-21.5c2.94,0.84,5.87,1.67,8.81,2.51C70.27,30,68,37.24,65.72,44.48
		c1.42,0.38,3.43,1.12,5.4,2.69c5.07,4.04,6.11,10.53,6.63,14.08c1.18,7.99-1.25,9.15-2.92,24.54c-1.05,9.62-0.42,12.11-2.53,17.94
		c-1.03,2.84-2.73,7.41-6.6,11.53c-7.06,7.51-16.54,8.4-20.1,8.5c-0.27,0.01-0.57,0.01-0.91,0.01c-1.96,0-11.38-0.21-19.73-7.25
		c-1.85-1.56-5.27-4.5-7.68-9.62c-5.68-12.03-0.36-24.53,0.61-26.8c1.94-4.56,2.63-3.55,10.2-13.89
		C38.69,51.76,40.28,45.8,47.48,42.9C51.66,41.21,55.6,41.42,58.01,41.76z"/>
	
		<linearGradient id="SVGID_00000088118266976833358620000012278943195053861540_" gradientUnits="userSpaceOnUse" x1="65.7235" y1="44.4846" x2="65.7235" y2="44.4846">
		<stop  offset="0.2928" style="stop-color:#23763B"/>
		<stop  offset="0.3282" style="stop-color:#277B41"/>
		<stop  offset="0.413" style="stop-color:#2C854F"/>
		<stop  offset="0.4998" style="stop-color:#2F8C5B"/>
		<stop  offset="0.5888" style="stop-color:#319162"/>
		<stop  offset="0.6837" style="stop-color:#329265"/>
		<stop  offset="1" style="stop-color:#E8E1A7"/>
	</linearGradient>
	<path style="fill:none;stroke:url(#SVGID_00000088118266976833358620000012278943195053861540_);stroke-miterlimit:10;" d="
		M65.72,44.48"/>
	
		<linearGradient id="SVGID_00000083810166001638015830000009220505218107237804_" gradientUnits="userSpaceOnUse" x1="66.1352" y1="39.0741" x2="108.1605" y2="39.0741">
		<stop  offset="0.2928" style="stop-color:#23763B"/>
		<stop  offset="0.3282" style="stop-color:#277B41"/>
		<stop  offset="0.413" style="stop-color:#2C854F"/>
		<stop  offset="0.4998" style="stop-color:#2F8C5B"/>
		<stop  offset="0.5888" style="stop-color:#319162"/>
		<stop  offset="0.6837" style="stop-color:#329265"/>
		<stop  offset="1" style="stop-color:#E8E1A7"/>
	</linearGradient>
	
		<path style="fill:none;stroke:url(#SVGID_00000083810166001638015830000009220505218107237804_);stroke-width:3;stroke-miterlimit:10;" d="
		M106.33,38.29c-2.74-2.89-7.26-6.79-13.69-9.1c-2.21-0.79-6.24-2.2-11.49-1.74c-2.97,0.26-6.27,0.55-9.25,3.18
		c-1.03,0.91-4.15,3.99-4.27,8.57c-0.02,0.6-0.04,1.79,0.39,3.08c1.44,4.33,6.65,5.98,9.46,6.88c3.17,1.01,11.14,3.53,19.39-1.06
		C102.28,45.12,105.11,40.57,106.33,38.29z"/>
	
		<linearGradient id="SVGID_00000047774639616595161610000007684529549579956906_" gradientUnits="userSpaceOnUse" x1="64.7797" y1="38.767" x2="92.1387" y2="38.767">
		<stop  offset="0.2928" style="stop-color:#23763B"/>
		<stop  offset="0.3282" style="stop-color:#277B41"/>
		<stop  offset="0.413" style="stop-color:#2C854F"/>
		<stop  offset="0.4998" style="stop-color:#2F8C5B"/>
		<stop  offset="0.5888" style="stop-color:#319162"/>
		<stop  offset="0.6837" style="stop-color:#329265"/>
		<stop  offset="1" style="stop-color:#E8E1A7"/>
	</linearGradient>
	
		<path style="fill:none;stroke:url(#SVGID_00000047774639616595161610000007684529549579956906_);stroke-width:3;stroke-miterlimit:10;" d="
		M90.63,40.66c0-0.65,0-1.29,0-1.94c-2.39-0.73-5.54-1.47-9.25-1.79c-5.39-0.46-9.76,0.16-12.63,0.79c-0.37,0.5-0.74,0.99-1.11,1.49
		C75.31,39.7,82.97,40.18,90.63,40.66z"/>
	
		<linearGradient id="SVGID_00000117665211724972299410000000233365943435860142_" gradientUnits="userSpaceOnUse" x1="39.6264" y1="84.2736" x2="72.6001" y2="84.2736">
		<stop  offset="0.2928" style="stop-color:#23763B"/>
		<stop  offset="0.3282" style="stop-color:#277B41"/>
		<stop  offset="0.413" style="stop-color:#2C854F"/>
		<stop  offset="0.4998" style="stop-color:#2F8C5B"/>
		<stop  offset="0.5888" style="stop-color:#319162"/>
		<stop  offset="0.6837" style="stop-color:#329265"/>
		<stop  offset="1" style="stop-color:#E8E1A7"/>
	</linearGradient>
	
		<path style="fill:none;stroke:url(#SVGID_00000117665211724972299410000000233365943435860142_);stroke-width:3;stroke-miterlimit:10;" d="
		M65.72,44.48c1.81,3.05,4.24,8.01,5.13,14.52c0.52,3.74,0.16,7.38-0.59,14.52c-1.16,11.15-2.83,18.4-3.59,21.51
		c-2.09,8.52-3.65,11.49-4.91,13.5c-0.7,1.12-2.77,4.27-6.35,7.36c-5.76,4.98-11.88,6.76-15.52,7.46"/>
	
		<linearGradient id="SVGID_00000062183855783508064880000015958299288601334158_" gradientUnits="userSpaceOnUse" x1="18.7237" y1="82.2343" x2="63.9292" y2="82.2343">
		<stop  offset="0.2928" style="stop-color:#23763B"/>
		<stop  offset="0.3282" style="stop-color:#277B41"/>
		<stop  offset="0.413" style="stop-color:#2C854F"/>
		<stop  offset="0.4998" style="stop-color:#2F8C5B"/>
		<stop  offset="0.5888" style="stop-color:#319162"/>
		<stop  offset="0.6837" style="stop-color:#329265"/>
		<stop  offset="1" style="stop-color:#E8E1A7"/>
	</linearGradient>
	
		<path style="fill:none;stroke:url(#SVGID_00000062183855783508064880000015958299288601334158_);stroke-width:3;stroke-miterlimit:10;" d="
		M55.51,49.47c0.55,0.15,3.27,0.93,5.24,3.55c2.22,2.94,2.25,6.54,0.07,20.94c-1.78,11.79-1.93,10.2-2.85,17.43
		c-0.95,7.43-0.74,8.64-1.93,11.39c-3.55,8.21-11.4,11.17-11.83,11.32c-1.15,0.41-10.27,3.52-17.29-2.28
		c-3.93-3.25-5.19-7.63-5.78-9.67c-2.96-10.28,2.14-19.45,3.13-21.16c1.87-3.21,1.99-1.86,7.94-9.69c2.73-3.59,4.74-6.24,7.17-10.07
		c3.72-5.87,3.6-6.92,5.87-8.79C46.12,51.72,50.49,48.12,55.51,49.47z"/>
	
		<linearGradient id="SVGID_00000102512623571139094230000012126496349469869187_" gradientUnits="userSpaceOnUse" x1="26.8667" y1="92.6474" x2="51.3873" y2="92.6474">
		<stop  offset="0.2928" style="stop-color:#23763B"/>
		<stop  offset="0.3282" style="stop-color:#277B41"/>
		<stop  offset="0.413" style="stop-color:#2C854F"/>
		<stop  offset="0.4998" style="stop-color:#2F8C5B"/>
		<stop  offset="0.5888" style="stop-color:#319162"/>
		<stop  offset="0.6837" style="stop-color:#329265"/>
		<stop  offset="1" style="stop-color:#E8E1A7"/>
	</linearGradient>
	
		<ellipse style="fill:none;stroke:url(#SVGID_00000102512623571139094230000012126496349469869187_);stroke-width:3;stroke-miterlimit:10;" cx="39.13" cy="92.65" rx="10.76" ry="11.35"/>
	
		<linearGradient id="SVGID_00000129185536423640216830000004151795096739054516_" gradientUnits="userSpaceOnUse" x1="34.1753" y1="87.2483" x2="43.9378" y2="87.2483">
		<stop  offset="0.2928" style="stop-color:#23763B"/>
		<stop  offset="0.3282" style="stop-color:#277B41"/>
		<stop  offset="0.413" style="stop-color:#2C854F"/>
		<stop  offset="0.4998" style="stop-color:#2F8C5B"/>
		<stop  offset="0.5888" style="stop-color:#319162"/>
		<stop  offset="0.6837" style="stop-color:#329265"/>
		<stop  offset="1" style="stop-color:#E8E1A7"/>
	</linearGradient>
	
		<path style="fill:none;stroke:url(#SVGID_00000129185536423640216830000004151795096739054516_);stroke-width:3;stroke-miterlimit:10;" d="
		M39.47,87.9c1.1-0.11,1.53,0.32,2.23,0.07c0.42-0.15,0.78-0.49,0.74-0.81c-0.08-0.64-1.74-1.1-2.99-1.15
		c-1.47-0.06-3.34,0.38-3.7,1.28c-0.15,0.37-0.07,0.91,0.37,1.13c0.33,0.17,0.76,0.1,1.43-0.01C38.71,88.2,38.71,87.97,39.47,87.9z"
		/>
	
		<linearGradient id="SVGID_00000112621677444583274290000004771023937877616291_" gradientUnits="userSpaceOnUse" x1="31.6775" y1="93.6409" x2="38.1623" y2="93.6409">
		<stop  offset="0.2928" style="stop-color:#23763B"/>
		<stop  offset="0.3282" style="stop-color:#277B41"/>
		<stop  offset="0.413" style="stop-color:#2C854F"/>
		<stop  offset="0.4998" style="stop-color:#2F8C5B"/>
		<stop  offset="0.5888" style="stop-color:#319162"/>
		<stop  offset="0.6837" style="stop-color:#329265"/>
		<stop  offset="1" style="stop-color:#E8E1A7"/>
	</linearGradient>
	
		<ellipse style="fill:none;stroke:url(#SVGID_00000112621677444583274290000004771023937877616291_);stroke-width:3;stroke-miterlimit:10;" cx="34.92" cy="93.64" rx="1.74" ry="1.84"/>
</g>
</svg>
