<?xml version="1.0" encoding="utf-8"?>
<!-- Generator: Adobe Illustrator 28.0.0, SVG Export Plug-In . SVG Version: 6.00 Build 0)  -->
<svg version="1.1" id="Layer_1" xmlns="http://www.w3.org/2000/svg" xmlns:xlink="http://www.w3.org/1999/xlink" x="0px" y="0px"
	 viewBox="0 0 96.2 118.99" style="enable-background:new 0 0 96.2 118.99;" xml:space="preserve">
<style type="text/css">
	.st0{fill:#6A8F3D;}
	.st1{fill:#E0E44A;}
	.st2{fill:#BA732B;}
	.st3{fill:#815020;}
	.st4{fill:#FFFFFF;}
</style>
<path class="st0" d="M27.57,16.56c-1.12-0.15-2.97-0.22-3.44,0.34c-0.78,0.92,3,2.72,6.81,6.14c3.51,3.15,7.52,8.12,5.57,9.49
	c-0.93,0.65-2.65,0.08-4.34,0.13c-7.5,0.25-12.3,12.96-13.92,17.39c-11.48,31.38-7.96,39.17-4.02,44c1.56,1.91,3.03,3.16,3.4,3.48
	c6.62,5.58,20.71,12.14,36.5,9.71c15.64-2.41,22.5-12.02,23.82-14c3.78-5.7,3.48-11.18,2.17-16.98
	c-3.81-16.87-15.04-31.87-25.68-42.97c-1.45-1.25-3.3-2.3-5.57-2.46c-2.13-0.15-3.3,0.59-4.95,0.2c-2.08-0.49-2.79-2.25-3.4-3.48
	C38.37,23.21,33.42,17.36,27.57,16.56z"/>
<path class="st1" d="M31.3,18.94c-0.98-0.14-2.59-0.2-3,0.32c-0.69,0.88,2.62,2.58,5.94,5.82c3.06,2.99,6.56,7.7,4.87,8.99
	c-0.81,0.62-2.31,0.07-3.79,0.12c-6.55,0.24-10.73,12.28-12.15,16.49c-10.02,29.74-6.95,37.13-3.51,41.7c1.36,1.81,2.64,3,2.97,3.3
	c5.78,5.29,18.08,11.5,31.86,9.2c13.65-2.28,19.64-11.39,20.79-13.27c3.3-5.4,3.03-10.59,1.89-16.1
	C73.85,59.52,64.05,45.3,54.76,34.77c-1.27-1.18-2.88-2.18-4.86-2.33c-1.86-0.14-2.88,0.56-4.32,0.19c-1.81-0.46-2.44-2.13-2.97-3.3
	C40.73,25.24,36.41,19.69,31.3,18.94z"/>
<g>
	<path class="st2" d="M34.2,74.33c-2.97,5.52-0.17,10.52,1.49,13.48c1.89,3.37,3.93,4.69,4.86,5.22c0.91,0.53,4.15,2.35,9.09,2.46
		c0.4,0.01,6.85,0.09,11.31-3.24c2.86-2.14,3.37-4.55,3.69-6.22c1.45-7.62-6.09-13.51-8.27-15.07c-3.19-2.29-6.75-4.85-11.29-4.58
		C38.25,66.79,34.76,73.28,34.2,74.33z"/>
	<path class="st3" d="M34.63,80.99c-1.58,0.53-0.31,4.05,0,4.91c0.86,2.39,2.34,6.47,8.35,8.39c7.29,2.33,14.44-0.71,15.16-1.02
		c3.27-1.44,6.51-4.07,5.57-5.12c-1.12-1.25-6.67,1.48-13.61,0.41C40.87,87.14,36.92,80.22,34.63,80.99z"/>
	<path class="st4" d="M37.6,72.17c-0.2,0.3-0.39,0.68-0.13,0.88c0.85,0.66,4.96-2.12,9.37-1.71c4.48,0.41,6.76,3.88,7.73,3.48
		c0.65-0.27-0.13-1.94-1.02-3c-0.43-0.51-1.72-2.06-4.55-2.73c-3.81-0.91-7.17,0.54-7.55,0.71"/>
</g>
</svg>
